<?xml version="1.0" encoding="UTF-8" standalone="no"?>
<!-- Created with Inkscape (http://www.inkscape.org/) -->

<svg
   xmlns:dc="http://purl.org/dc/elements/1.1/"
   xmlns:cc="http://creativecommons.org/ns#"
   xmlns:rdf="http://www.w3.org/1999/02/22-rdf-syntax-ns#"
   xmlns:svg="http://www.w3.org/2000/svg"
   xmlns="http://www.w3.org/2000/svg"
   xmlns:sodipodi="http://sodipodi.sourceforge.net/DTD/sodipodi-0.dtd"
   xmlns:inkscape="http://www.inkscape.org/namespaces/inkscape"
   width="40.639999mm"
   height="128.5mm"
   viewBox="0 0 40.64 128.5"
   version="1.1"
   id="svg873"
   inkscape:version="0.92.4 (5da689c313, 2019-01-14)"
   sodipodi:docname="Module_Rack.svg">
  <defs
     id="defs867" />
  <sodipodi:namedview
     id="base"
     pagecolor="#ffffff"
     bordercolor="#666666"
     borderopacity="1.0"
     inkscape:pageopacity="0.0"
     inkscape:pageshadow="2"
     inkscape:zoom="1.5710279"
     inkscape:cx="220.35899"
     inkscape:cy="244.76254"
     inkscape:document-units="mm"
     inkscape:current-layer="layer1"
     showgrid="false"
     inkscape:snap-grids="false"
     inkscape:window-width="1920"
     inkscape:window-height="986"
     inkscape:window-x="-11"
     inkscape:window-y="-11"
     inkscape:window-maximized="1"
     inkscape:snap-page="false"
     inkscape:snap-to-guides="false" />
  <metadata
     id="metadata870">
    <rdf:RDF>
      <cc:Work
         rdf:about="">
        <dc:format>image/svg+xml</dc:format>
        <dc:type
           rdf:resource="http://purl.org/dc/dcmitype/StillImage" />
        <dc:title></dc:title>
      </cc:Work>
    </rdf:RDF>
  </metadata>
  <g
     inkscape:label="Ebene 1"
     inkscape:groupmode="layer"
     id="layer1"
     transform="translate(0,-168.5)">
    <rect
       style="opacity:0.98999999;fill:#e9afaf;fill-opacity:1;fill-rule:nonzero;stroke:#191b29;stroke-width:0.36167264;stroke-miterlimit:4;stroke-dasharray:none;stroke-opacity:0.9677419"
       id="rect1418"
       width="40.648045"
       height="128.50804"
       x="-2.3279989e-15"
       y="168.49196" />
    <g
       aria-label="QRX"
       style="font-style:normal;font-weight:normal;font-size:10.58333302px;line-height:1.25;font-family:sans-serif;letter-spacing:0px;word-spacing:0px;fill:#ff0000;fill-opacity:1;stroke:#191b29;stroke-width:0.26458332;stroke-opacity:0.9677419"
       id="text1422">
      <path
         d="m 11.781117,289.89859 h -0.155029 q -1.9068604,0 -2.9662273,-1.0542 -1.0593668,-1.0542 -1.0593668,-2.93522 0,-1.87585 1.0541992,-2.94039 1.0593668,-1.06453 2.9145509,-1.06453 1.875854,0 2.919718,1.0542 1.049032,1.05419 1.049032,2.95072 0,1.30225 -0.558106,2.24276 -0.552938,0.94051 -1.596802,1.41593 l 1.555461,1.73633 h -1.896525 z m -0.211873,-6.55257 q -0.909505,0 -1.410767,0.67179 -0.5012612,0.6718 -0.5012612,1.89136 0,1.24023 0.4909262,1.90169 0.490926,0.65629 1.421102,0.65629 0.914673,0 1.415934,-0.67179 0.501261,-0.67179 0.501261,-1.88619 0,-1.21956 -0.501261,-1.89136 -0.501261,-0.67179 -1.415934,-0.67179 z"
         style="font-style:normal;font-variant:normal;font-weight:bold;font-stretch:normal;font-size:10.58333302px;font-family:sans-serif;-inkscape-font-specification:'sans-serif, Bold';font-variant-ligatures:normal;font-variant-caps:normal;font-variant-numeric:normal;font-feature-settings:normal;text-align:start;writing-mode:lr-tb;text-anchor:start;fill:#ff0000;stroke:#191b29;stroke-width:0.26458332;stroke-opacity:0.9677419"
         id="path906" />
      <path
         d="m 19.863311,285.46475 q 0.625285,0 0.894002,-0.23254 0.273886,-0.23255 0.273886,-0.76481 0,-0.5271 -0.273886,-0.75448 -0.268717,-0.22737 -0.894002,-0.22737 h -0.837158 v 1.9792 z m -0.837158,1.3746 v 2.91971 H 17.03661 v -7.71529 h 3.038575 q 1.524454,0 2.232421,0.5116 0.713135,0.5116 0.713135,1.61747 0,0.76481 -0.37207,1.25574 -0.366903,0.49092 -1.111043,0.72347 0.408243,0.093 0.728637,0.42375 0.325562,0.32556 0.656291,0.99218 l 1.080037,2.19108 H 21.88386 l -0.940511,-1.91719 q -0.284221,-0.57878 -0.578776,-0.79065 -0.289388,-0.21187 -0.775147,-0.21187 z"
         style="font-style:normal;font-variant:normal;font-weight:bold;font-stretch:normal;font-size:10.58333302px;font-family:sans-serif;-inkscape-font-specification:'sans-serif, Bold';font-variant-ligatures:normal;font-variant-caps:normal;font-variant-numeric:normal;font-feature-settings:normal;text-align:start;writing-mode:lr-tb;text-anchor:start;fill:#ff0000;stroke:#191b29;stroke-width:0.26458332;stroke-opacity:0.9677419"
         id="path908" />
      <path
         d="m 29.480295,285.82132 2.676839,3.93774 h -2.072225 l -1.803508,-2.63549 -1.788004,2.63549 h -2.08256 l 2.676839,-3.93774 -2.573486,-3.77755 h 2.077392 l 1.689819,2.48564 1.684652,-2.48564 h 2.087728 z"
         style="font-style:normal;font-variant:normal;font-weight:bold;font-stretch:normal;font-size:10.58333302px;font-family:sans-serif;-inkscape-font-specification:'sans-serif, Bold';font-variant-ligatures:normal;font-variant-caps:normal;font-variant-numeric:normal;font-feature-settings:normal;text-align:start;writing-mode:lr-tb;text-anchor:start;fill:#ff0000;stroke:#191b29;stroke-width:0.26458332;stroke-opacity:0.9677419"
         id="path910" />
    </g>
    <path
       style="fill:#808080;stroke:#808080;stroke-width:0.26458332px;stroke-linecap:butt;stroke-linejoin:miter;stroke-opacity:1"
       d="M 3.3682831,278.42658 H 36.545871"
       id="path1424"
       inkscape:connector-curvature="0"
       sodipodi:nodetypes="cc" />
    <g
       aria-label="CVWizard"
       style="font-style:normal;font-weight:normal;font-size:10.58333302px;line-height:1.25;font-family:sans-serif;letter-spacing:0px;word-spacing:0px;fill:#000000;fill-opacity:1;stroke:none;stroke-width:0.26458332"
       id="text1443">
      <path
         d="m 9.0245174,270.68336 v 0.58704 Q 8.7433976,271.00858 8.4236928,270.87904 8.106744,270.7495 7.7484541,270.7495 q -0.7055556,0 -1.080382,0.43271 -0.3748264,0.42995 -0.3748264,1.24574 0,0.81305 0.3748264,1.24575 0.3748264,0.42995 1.080382,0.42995 0.3582899,0 0.6752387,-0.12954 0.3197048,-0.12953 0.6008246,-0.39136 v 0.58153 q -0.2921441,0.19844 -0.6201172,0.29766 -0.325217,0.0992 -0.6890191,0.0992 -0.9343099,0 -1.4717448,-0.57051 -0.5374349,-0.57326 -0.5374349,-1.5627 0,-0.99218 0.5374349,-1.56269 0.5374349,-0.57326 1.4717448,-0.57326 0.3693143,0 0.6945313,0.0992 0.3279731,0.0965 0.614605,0.29215 z"
         style="font-style:normal;font-variant:normal;font-weight:normal;font-stretch:normal;font-size:5.64444447px;font-family:sans-serif;-inkscape-font-specification:'sans-serif, Normal';font-variant-ligatures:normal;font-variant-caps:normal;font-variant-numeric:normal;font-feature-settings:normal;text-align:start;writing-mode:lr-tb;text-anchor:start"
         id="path889" />
      <path
         d="m 10.951015,274.48123 -1.5709638,-4.11482 h 0.5815321 l 1.3036237,3.46439 1.306381,-3.46439 h 0.578776 l -1.568208,4.11482 z"
         style="font-style:normal;font-variant:normal;font-weight:normal;font-stretch:normal;font-size:5.64444447px;font-family:sans-serif;-inkscape-font-specification:'sans-serif, Normal';font-variant-ligatures:normal;font-variant-caps:normal;font-variant-numeric:normal;font-feature-settings:normal;text-align:start;writing-mode:lr-tb;text-anchor:start"
         id="path891" />
      <path
         d="m 13.798042,270.36641 h 0.981163 l 0.126779,2.99034 1.2926,-2.99034 h 1.008724 l 0.135048,2.99034 1.248502,-2.99034 h 1.055578 l -1.772157,4.11482 h -1.20165 l -0.137804,-3.12815 -1.331184,3.12815 H 13.97443 Z"
         style="font-style:italic;font-variant:normal;font-weight:bold;font-stretch:normal;font-size:5.64444447px;font-family:sans-serif;-inkscape-font-specification:'sans-serif, Bold Italic';font-variant-ligatures:normal;font-variant-caps:normal;font-variant-numeric:normal;font-feature-settings:normal;text-align:start;writing-mode:lr-tb;text-anchor:start;stroke-width:0.26458332"
         id="path893" />
      <path
         d="m 20.197651,271.39443 h 0.992188 l -0.603581,3.0868 h -0.989431 z m 0.231511,-1.20165 h 0.992187 l -0.157096,0.80477 h -0.994944 z"
         style="font-style:italic;font-variant:normal;font-weight:bold;font-stretch:normal;font-size:5.64444447px;font-family:sans-serif;-inkscape-font-specification:'sans-serif, Bold Italic';font-variant-ligatures:normal;font-variant-caps:normal;font-variant-numeric:normal;font-feature-settings:normal;text-align:start;writing-mode:lr-tb;text-anchor:start;stroke-width:0.26458332"
         id="path895" />
      <path
         d="m 21.978076,271.39443 h 2.692687 l -0.135048,0.68902 -1.923741,1.69223 h 1.595768 l -0.135048,0.70555 h -2.758832 l 0.129535,-0.68902 1.929254,-1.69223 h -1.529623 z"
         style="font-style:italic;font-variant:normal;font-weight:bold;font-stretch:normal;font-size:5.64444447px;font-family:sans-serif;-inkscape-font-specification:'sans-serif, Bold Italic';font-variant-ligatures:normal;font-variant-caps:normal;font-variant-numeric:normal;font-feature-settings:normal;text-align:start;writing-mode:lr-tb;text-anchor:start;stroke-width:0.26458332"
         id="path897" />
      <path
         d="m 26.506311,273.09217 q -0.369315,0 -0.559484,0.11575 -0.187413,0.113 -0.187413,0.33625 0,0.16812 0.110243,0.26458 0.112999,0.0965 0.30868,0.0965 0.303169,0 0.507118,-0.1819 0.20395,-0.18466 0.272852,-0.51814 l 0.02205,-0.113 z m 1.540646,-0.37207 -0.344509,1.76113 h -0.986676 l 0.08268,-0.45751 q -0.242535,0.27561 -0.512631,0.4079 -0.270095,0.12954 -0.587044,0.12954 -0.438216,0 -0.697287,-0.226 -0.256315,-0.22875 -0.256315,-0.61461 0,-0.5898 0.454752,-0.90123 0.457509,-0.3142 1.317405,-0.3142 h 0.581532 l 0.01102,-0.0772 q 0.0083,-0.0386 0.0083,-0.0551 0.0028,-0.0165 0.0028,-0.0303 0,-0.1819 -0.173633,-0.27286 -0.170877,-0.0937 -0.509874,-0.0937 -0.305925,0 -0.592557,0.0634 -0.286632,0.0634 -0.553971,0.19017 l 0.148828,-0.75241 q 0.308681,-0.0772 0.631141,-0.11576 0.325217,-0.0413 0.672483,-0.0413 0.686263,0 1.019748,0.23702 0.333486,0.23427 0.333486,0.71658 0,0.0937 -0.01378,0.20671 -0.01102,0.11024 -0.03583,0.23978 z"
         style="font-style:italic;font-variant:normal;font-weight:bold;font-stretch:normal;font-size:5.64444447px;font-family:sans-serif;-inkscape-font-specification:'sans-serif, Bold Italic';font-variant-ligatures:normal;font-variant-caps:normal;font-variant-numeric:normal;font-feature-settings:normal;text-align:start;writing-mode:lr-tb;text-anchor:start;stroke-width:0.26458332"
         id="path899" />
      <path
         d="m 31.365273,272.23503 q -0.101975,-0.0579 -0.225999,-0.0882 -0.124023,-0.0303 -0.267339,-0.0303 -0.377582,0 -0.628385,0.24253 -0.248047,0.24254 -0.336242,0.70005 l -0.281119,1.42213 h -0.989432 l 0.600825,-3.0868 h 0.992187 l -0.107487,0.52916 q 0.195682,-0.29214 0.487826,-0.44648 0.2949,-0.1571 0.65319,-0.1571 0.05237,0 0.118511,0.006 0.06615,0.006 0.157097,0.0165 z"
         style="font-style:italic;font-variant:normal;font-weight:bold;font-stretch:normal;font-size:5.64444447px;font-family:sans-serif;-inkscape-font-specification:'sans-serif, Bold Italic';font-variant-ligatures:normal;font-variant-caps:normal;font-variant-numeric:normal;font-feature-settings:normal;text-align:start;writing-mode:lr-tb;text-anchor:start;stroke-width:0.26458332"
         id="path901" />
      <path
         d="m 32.985845,273.84458 q 0.380338,0 0.617361,-0.35002 0.239778,-0.35003 0.239778,-0.91502 0,-0.25632 -0.135047,-0.39963 -0.132292,-0.14332 -0.372071,-0.14332 -0.374826,0 -0.617361,0.34727 -0.242534,0.34451 -0.242534,0.8847 0,0.28112 0.129535,0.42995 0.132292,0.14607 0.380339,0.14607 z m 1.03904,-1.99816 0.319705,-1.65364 h 0.994944 l -0.835091,4.28845 h -0.994944 l 0.09095,-0.44648 q -0.225999,0.27009 -0.474045,0.39963 -0.248047,0.12678 -0.542947,0.12678 -0.520899,0 -0.824067,-0.33073 -0.303169,-0.33073 -0.303169,-0.90124 0,-0.35553 0.104731,-0.69177 0.107487,-0.33624 0.305925,-0.61185 0.250803,-0.34727 0.564995,-0.52641 0.316949,-0.17915 0.677995,-0.17915 0.316949,0 0.537435,0.12954 0.223242,0.12678 0.377582,0.39687 z"
         style="font-style:italic;font-variant:normal;font-weight:bold;font-stretch:normal;font-size:5.64444447px;font-family:sans-serif;-inkscape-font-specification:'sans-serif, Bold Italic';font-variant-ligatures:normal;font-variant-caps:normal;font-variant-numeric:normal;font-feature-settings:normal;text-align:start;writing-mode:lr-tb;text-anchor:start;stroke-width:0.26458332"
         id="path903" />
    </g>
    <path
       style="fill:#808080;stroke:#808080;stroke-width:0.26458332px;stroke-linecap:butt;stroke-linejoin:miter;stroke-opacity:1"
       d="M 3.2290778,176.67959 H 36.406663"
       id="path1424-6"
       inkscape:connector-curvature="0"
       sodipodi:nodetypes="cc" />
    <g
       aria-label="under
development"
       style="font-style:normal;font-variant:normal;font-weight:normal;font-stretch:normal;font-size:4.23333311px;line-height:1.25;font-family:'MV Boli';-inkscape-font-specification:'MV Boli, Normal';font-variant-ligatures:normal;font-variant-caps:normal;font-variant-numeric:normal;font-feature-settings:normal;text-align:center;letter-spacing:0px;word-spacing:0px;writing-mode:lr-tb;text-anchor:middle;fill:#666666;fill-opacity:1;stroke:none;stroke-width:0.26458332"
       id="text1466">
      <path
         d="m 14.745087,212.26 q 0.0096,-0.0386 0.02653,-0.0651 0.01929,-0.0289 0.03859,-0.0458 0.0217,-0.0169 0.03858,-0.0241 0.01688,-0.007 0.02653,-0.007 0.02653,0 0.0627,0.007 0.03617,0.005 0.06994,0.01 0.03858,0.007 0.07476,0.0145 0.0627,0.002 0.08923,0.0506 0.02894,0.0482 0.02894,0.11576 0,0.053 -0.01447,0.0989 -0.08199,0.30145 -0.149517,0.52572 -0.06752,0.22187 -0.115756,0.37862 -0.04582,0.15675 -0.07235,0.25563 -0.02412,0.0989 -0.02412,0.14951 0,0.0507 0.01206,0.11335 0.01447,0.0627 0.041,0.11816 0.02653,0.0531 0.06752,0.0892 0.041,0.0362 0.09887,0.0362 0.101286,0 0.204984,-0.0627 0.103697,-0.0627 0.197748,-0.15193 0.09405,-0.0916 0.16881,-0.19292 0.07717,-0.1037 0.125401,-0.18328 l 0.0627,-0.10852 q 0.05788,-0.10129 0.106109,-0.23151 0.05064,-0.13264 0.08682,-0.26527 0.03858,-0.13264 0.06511,-0.24839 0.02653,-0.11817 0.041,-0.18811 l 0.0627,-0.32073 q 0.01929,-0.0916 0.05788,-0.12541 0.041,-0.0362 0.135047,-0.0362 0.06029,0 0.108521,0.0145 0.04823,0.0121 0.08199,0.0458 0.03376,0.0338 0.05064,0.0916 0.01688,0.0555 0.01688,0.14469 0,0.1037 -0.03376,0.25563 -0.03135,0.14952 -0.06994,0.30144 -0.0217,0.0892 -0.04582,0.19052 -0.0217,0.0989 -0.041,0.20016 -0.01688,0.0989 -0.02894,0.19051 -0.0096,0.0892 -0.0096,0.16158 0,0.12299 0.0072,0.24598 0.0096,0.12299 0.0096,0.26045 0,0.0627 -0.0048,0.11093 -0.0024,0.0482 -0.0096,0.0724 -0.02653,0.0941 -0.06994,0.13987 -0.041,0.0458 -0.142282,0.0458 -0.06994,0 -0.110932,-0.0169 -0.041,-0.0145 -0.06511,-0.041 -0.0217,-0.0265 -0.02894,-0.0579 -0.0072,-0.0338 -0.0096,-0.0675 l -0.02653,-0.45579 -0.0217,0.007 q -0.07958,0.10128 -0.173633,0.22668 -0.09405,0.1254 -0.207395,0.23392 -0.113343,0.10853 -0.248391,0.18087 -0.132636,0.0748 -0.289388,0.0748 -0.03135,0 -0.08199,-0.0169 -0.04823,-0.0145 -0.101286,-0.0386 -0.05305,-0.0241 -0.101286,-0.0555 -0.04823,-0.0289 -0.07717,-0.0555 -0.132636,-0.12299 -0.188102,-0.27733 -0.05547,-0.15434 -0.05547,-0.3135 0,-0.0892 0.01447,-0.17846 0.01447,-0.0892 0.03376,-0.17122 0.01929,-0.0844 0.041,-0.15675 0.02412,-0.0748 0.03858,-0.13264 0.04582,-0.18086 0.08199,-0.31832 0.03617,-0.13746 0.0627,-0.24116 0.02894,-0.1037 0.04823,-0.17604 0.01929,-0.0748 0.03376,-0.13023 z"
         style="font-style:normal;font-variant:normal;font-weight:normal;font-stretch:normal;font-size:4.93888903px;font-family:'MV Boli';-inkscape-font-specification:'MV Boli, Normal';font-variant-ligatures:normal;font-variant-caps:normal;font-variant-numeric:normal;font-feature-settings:normal;text-align:center;writing-mode:lr-tb;text-anchor:middle;fill:#666666;stroke-width:0.26458332"
         id="path856" />
      <path
         d="m 18.777227,212.4264 q -0.08441,0 -0.180867,0.041 -0.09646,0.0386 -0.20016,0.1061 -0.103698,0.0675 -0.212218,0.15435 -0.106109,0.0844 -0.209807,0.17604 -0.05305,0.0458 -0.101286,0.0844 -0.04823,0.0362 -0.09646,0.0555 -0.03376,0.0555 -0.07235,0.14711 -0.03617,0.0892 -0.07235,0.19774 -0.03617,0.10611 -0.06994,0.21946 -0.03135,0.11093 -0.05305,0.20739 -0.01206,0.0506 -0.01929,0.0989 -0.0072,0.0482 -0.01688,0.10369 -0.0096,0.0531 -0.02411,0.11576 -0.01206,0.0627 -0.03135,0.13987 -0.01206,0.0458 -0.03859,0.0748 -0.02653,0.0265 -0.05547,0.041 -0.02894,0.0145 -0.05547,0.0169 -0.02653,0.005 -0.041,0.005 -0.09164,0 -0.149518,-0.0434 -0.05788,-0.0434 -0.05788,-0.16881 0,-0.0338 0.0024,-0.0699 0.0024,-0.0386 0.01447,-0.0844 0.05305,-0.2291 0.101286,-0.41238 0.05064,-0.18328 0.101285,-0.34003 0.05064,-0.15675 0.101286,-0.29421 0.05306,-0.13987 0.106109,-0.27974 0.05547,-0.14228 0.113344,-0.2918 0.06029,-0.15193 0.127813,-0.33521 0.01447,-0.041 0.07476,-0.0675 0.0627,-0.0289 0.132637,-0.0289 0.09164,0 0.149517,0.041 0.06029,0.041 0.06029,0.11816 0,0.007 -0.0048,0.0265 -0.0048,0.0193 -0.01447,0.041 l -0.106109,0.2508 q 0.101286,-0.0796 0.209807,-0.15916 0.110932,-0.0796 0.226687,-0.14229 0.115755,-0.0651 0.23151,-0.10369 0.118167,-0.041 0.231511,-0.041 0.23151,0 0.361735,0.1254 0.130225,0.12299 0.130225,0.38344 0,0.14952 -0.05306,0.34003 -0.05064,0.19051 -0.130225,0.40997 -0.07717,0.21704 -0.168809,0.45819 -0.08923,0.23875 -0.166398,0.48714 -0.0217,0.0675 -0.04582,0.11335 -0.0217,0.0458 -0.05306,0.0723 -0.03135,0.0289 -0.07476,0.041 -0.041,0.0121 -0.101286,0.0121 -0.09405,0 -0.130225,-0.0362 -0.03617,-0.0338 -0.03617,-0.11093 0,-0.0675 0.01929,-0.16399 0.02171,-0.0989 0.05788,-0.21463 0.03858,-0.11816 0.08682,-0.2508 0.05064,-0.13263 0.108521,-0.27009 0.04582,-0.11094 0.08923,-0.22187 0.04582,-0.11093 0.07958,-0.21463 0.03617,-0.10369 0.05788,-0.19775 0.0217,-0.094 0.0217,-0.17363 0,-0.0748 -0.03376,-0.13022 -0.03135,-0.0579 -0.120578,-0.0579 z"
         style="font-style:normal;font-variant:normal;font-weight:normal;font-stretch:normal;font-size:4.93888903px;font-family:'MV Boli';-inkscape-font-specification:'MV Boli, Normal';font-variant-ligatures:normal;font-variant-caps:normal;font-variant-numeric:normal;font-feature-settings:normal;text-align:center;writing-mode:lr-tb;text-anchor:middle;fill:#666666;stroke-width:0.26458332"
         id="path858" />
      <path
         d="m 19.768381,213.57913 q 0.03135,-0.13023 0.08199,-0.26045 0.05306,-0.13023 0.130225,-0.25804 0.07717,-0.12781 0.183279,-0.24839 0.106109,-0.12299 0.248391,-0.23392 0.09646,-0.0772 0.202572,-0.1447 0.108521,-0.0699 0.219453,-0.12057 0.110932,-0.0507 0.221864,-0.0796 0.113343,-0.0314 0.221864,-0.0314 0.07958,0 0.139871,0.0145 0.0627,0.0121 0.118167,0.0362 0.02412,-0.0844 0.127813,-0.45338 0.106109,-0.36897 0.258037,-1.02733 0.02653,-0.0651 0.07476,-0.10852 0.04823,-0.0434 0.115755,-0.0434 0.04823,0 0.09405,0.01 0.04582,0.007 0.08199,0.0338 0.03617,0.0241 0.05788,0.0675 0.0217,0.0434 0.0217,0.11334 l -0.484725,1.93649 q -0.0217,0.082 -0.041,0.22186 -0.01929,0.13746 -0.03617,0.2918 -0.01688,0.15434 -0.02653,0.30627 -0.0096,0.14952 -0.0096,0.25804 0,0.13505 -0.03135,0.26768 -0.01447,0.0579 -0.03135,0.0989 -0.01447,0.0386 -0.041,0.0651 -0.02653,0.0241 -0.06752,0.0362 -0.03858,0.01 -0.09887,0.01 -0.06994,0 -0.10852,-0.0145 -0.03859,-0.0145 -0.05788,-0.0386 -0.01929,-0.0265 -0.02412,-0.0579 -0.0024,-0.0338 -0.0048,-0.0699 0,-0.0386 -0.0048,-0.0772 -0.0024,-0.041 -0.01929,-0.0772 -0.02894,0.0193 -0.07958,0.0506 -0.05064,0.0314 -0.103698,0.0651 -0.05064,0.0314 -0.09646,0.0603 -0.04582,0.0265 -0.06752,0.0386 -0.05547,0.0314 -0.125402,0.0675 -0.06994,0.0338 -0.151928,0.0651 -0.07958,0.0289 -0.16881,0.0482 -0.08682,0.0193 -0.176044,0.0193 -0.108521,0 -0.212218,-0.0362 -0.101286,-0.0362 -0.183279,-0.11093 -0.07958,-0.0748 -0.127813,-0.18811 -0.04823,-0.11575 -0.04823,-0.27009 0,-0.0555 0.0048,-0.10852 0.0072,-0.0555 0.02412,-0.12299 z m 0.417201,-0.0193 q -0.01929,0.0723 -0.01929,0.13987 0,0.0699 0.01206,0.13263 0.01206,0.0603 0.04341,0.10611 0.03376,0.0458 0.08682,0.0748 0.05547,0.0265 0.142282,0.0265 0.04823,0 0.103698,-0.0169 0.05547,-0.0169 0.10852,-0.041 0.05547,-0.0265 0.101286,-0.0531 0.04823,-0.0289 0.08199,-0.0506 0.09164,-0.0603 0.16881,-0.11816 0.07958,-0.0579 0.142283,-0.12541 0.0627,-0.0675 0.10852,-0.14951 0.04823,-0.0844 0.07717,-0.19293 0.02412,-0.0965 0.041,-0.17604 0.01929,-0.0796 0.03376,-0.15434 0.01447,-0.0772 0.02653,-0.15675 0.01206,-0.0796 0.02412,-0.17605 -0.01206,-0.0145 -0.03376,-0.0265 -0.01929,-0.0145 -0.06029,-0.0145 -0.09646,0 -0.212218,0.0338 -0.115756,0.0314 -0.238745,0.0916 -0.120579,0.0603 -0.238746,0.1471 -0.115755,0.0868 -0.217041,0.19534 -0.09887,0.10611 -0.173632,0.23392 -0.07476,0.12781 -0.108521,0.2701 z"
         style="font-style:normal;font-variant:normal;font-weight:normal;font-stretch:normal;font-size:4.93888903px;font-family:'MV Boli';-inkscape-font-specification:'MV Boli, Normal';font-variant-ligatures:normal;font-variant-caps:normal;font-variant-numeric:normal;font-feature-settings:normal;text-align:center;writing-mode:lr-tb;text-anchor:middle;fill:#666666;stroke-width:0.26458332"
         id="path860" />
      <path
         d="m 22.462102,213.47543 q 0,-0.1037 0.05547,-0.17604 0.05547,-0.0724 0.147105,-0.0965 0.02653,-0.0531 0.08199,-0.14228 0.05547,-0.0916 0.137459,-0.19775 0.08199,-0.10611 0.185691,-0.21221 0.106109,-0.10853 0.23151,-0.19534 0.127813,-0.0892 0.272507,-0.1447 0.147106,-0.0555 0.311092,-0.0555 0.139871,0 0.243568,0.0338 0.103698,0.0338 0.171222,0.0941 0.06752,0.0603 0.101286,0.1447 0.03376,0.082 0.03376,0.17845 0,0.082 -0.0217,0.15675 -0.03376,0.13505 -0.125401,0.23634 -0.09164,0.10128 -0.217041,0.17845 -0.12299,0.0748 -0.270096,0.1254 -0.144694,0.0507 -0.291799,0.0844 -0.144694,0.0338 -0.279742,0.053 -0.135048,0.0169 -0.233922,0.0265 -0.0217,0.0434 -0.03859,0.11093 -0.01447,0.0651 -0.01447,0.12782 0,0.13987 0.110932,0.21704 0.110932,0.0772 0.306269,0.0772 0.113343,0 0.217041,-0.0241 0.103697,-0.0265 0.195337,-0.0651 0.09405,-0.041 0.176044,-0.0868 0.08199,-0.0482 0.149517,-0.0941 0.08682,-0.0579 0.163987,-0.0965 0.07958,-0.041 0.139871,-0.041 0.06029,0 0.07717,0.0314 0.01688,0.0289 0.01688,0.0627 0,0.0193 -0.0024,0.0386 0,0.0169 -0.0024,0.0289 -0.01206,0.0627 -0.04823,0.1254 -0.03617,0.0627 -0.09164,0.10852 -0.250803,0.19775 -0.516076,0.28215 -0.262861,0.0844 -0.561895,0.0844 -0.05788,0 -0.137459,-0.007 -0.07717,-0.007 -0.161575,-0.0289 -0.08441,-0.0217 -0.166398,-0.0627 -0.08199,-0.041 -0.147106,-0.10852 -0.0627,-0.0675 -0.103697,-0.1664 -0.03858,-0.0989 -0.03858,-0.23874 0,-0.11334 0.03135,-0.25322 -0.03135,-0.005 -0.06029,-0.0314 -0.02653,-0.0289 -0.02653,-0.082 z m 1.509641,-0.668 q 0.0048,-0.0121 0.0048,-0.0217 0,-0.01 0,-0.0217 0,-0.0651 -0.04823,-0.0965 -0.04823,-0.0338 -0.115755,-0.0338 -0.106109,0 -0.209806,0.0555 -0.101286,0.0555 -0.192925,0.13987 -0.08923,0.082 -0.159164,0.17846 -0.06994,0.0941 -0.10852,0.17122 0.173632,-0.0145 0.318326,-0.0458 0.144694,-0.0338 0.250803,-0.082 0.108521,-0.0506 0.173633,-0.11094 0.06752,-0.0627 0.08682,-0.13263 z m -0.279742,-0.65354 z"
         style="font-style:normal;font-variant:normal;font-weight:normal;font-stretch:normal;font-size:4.93888903px;font-family:'MV Boli';-inkscape-font-specification:'MV Boli, Normal';font-variant-ligatures:normal;font-variant-caps:normal;font-variant-numeric:normal;font-feature-settings:normal;text-align:center;writing-mode:lr-tb;text-anchor:middle;fill:#666666;stroke-width:0.26458332"
         id="path862" />
      <path
         d="m 24.9846,214.1579 q 0.03135,-0.16881 0.07235,-0.37138 0.041,-0.20257 0.08441,-0.40996 0.04341,-0.2074 0.08441,-0.40756 0.041,-0.20016 0.06993,-0.36656 -0.0024,-0.0241 -0.0024,-0.041 0,-0.0193 0,-0.041 0,-0.0748 0.0096,-0.14952 0.0096,-0.0748 0.02653,-0.13746 0.02653,-0.0916 0.05788,-0.12299 0.03376,-0.0338 0.106109,-0.0338 0.06994,0 0.110932,0.0289 0.04341,0.0265 0.06752,0.0724 0.02411,0.0458 0.03135,0.10611 0.0072,0.0579 0.0072,0.12058 0,0.0338 -0.0024,0.0748 -0.0024,0.041 -0.0024,0.0651 0.06752,-0.0699 0.142282,-0.14229 0.07717,-0.0747 0.161575,-0.13263 0.08682,-0.0603 0.180867,-0.0989 0.09646,-0.0386 0.200161,-0.0386 0.041,0 0.07958,0.007 0.041,0.007 0.08199,0.0193 0.04823,0.0121 0.09887,0.0338 0.05305,0.0193 0.101286,0.0555 0.07958,0.0603 0.132636,0.15193 0.05547,0.0892 0.05547,0.18328 0,0.0362 -0.01447,0.0796 -0.01447,0.041 -0.041,0.0772 -0.02412,0.0338 -0.05788,0.0579 -0.03376,0.0217 -0.07476,0.0217 -0.041,0 -0.101286,-0.0193 -0.05788,-0.0217 -0.09646,-0.0555 -0.01688,-0.0145 -0.03617,-0.041 -0.01688,-0.0265 -0.03376,-0.0531 -0.01447,-0.0265 -0.02894,-0.0482 -0.01206,-0.0241 -0.01929,-0.0314 -0.01206,-0.002 -0.02653,-0.002 -0.01447,-0.002 -0.02653,-0.002 -0.12299,0 -0.233922,0.0627 -0.110932,0.0627 -0.207395,0.15434 -0.09646,0.0892 -0.178456,0.19293 -0.07958,0.10128 -0.139871,0.18328 -0.04823,0.19533 -0.10852,0.4172 -0.05788,0.21945 -0.115755,0.46061 v 0.0603 q 0,0.0723 -0.0048,0.1471 -0.0048,0.0748 -0.02894,0.13264 -0.02653,0.0362 -0.07717,0.0603 -0.04823,0.0265 -0.113343,0.0265 -0.101286,0 -0.151929,-0.0651 -0.05064,-0.0675 -0.05064,-0.15675 0,-0.041 0.01206,-0.0844 z"
         style="font-style:normal;font-variant:normal;font-weight:normal;font-stretch:normal;font-size:4.93888903px;font-family:'MV Boli';-inkscape-font-specification:'MV Boli, Normal';font-variant-ligatures:normal;font-variant-caps:normal;font-variant-numeric:normal;font-feature-settings:normal;text-align:center;writing-mode:lr-tb;text-anchor:middle;fill:#666666;stroke-width:0.26458332"
         id="path864" />
      <path
         d="m 6.3214839,219.75274 q 0.03135,-0.13023 0.081993,-0.26045 0.053054,-0.13022 0.1302246,-0.25804 0.07717,-0.12781 0.1832791,-0.24839 0.1061089,-0.12299 0.2483914,-0.23392 0.096463,-0.0772 0.2025716,-0.14469 0.1085205,-0.0699 0.2194526,-0.12058 0.1109321,-0.0506 0.2218641,-0.0796 0.1133437,-0.0314 0.2218642,-0.0314 0.079582,0 0.1398709,0.0145 0.062701,0.0121 0.1181667,0.0362 0.024116,-0.0844 0.1278131,-0.45338 0.1061089,-0.36897 0.2580377,-1.02732 0.026527,-0.0651 0.074759,-0.10852 0.048231,-0.0434 0.1157552,-0.0434 0.048231,0 0.094051,0.01 0.04582,0.007 0.081993,0.0338 0.036174,0.0241 0.057878,0.0675 0.021704,0.0434 0.021704,0.11334 l -0.4847249,1.93649 q -0.021704,0.082 -0.040997,0.22187 -0.019292,0.13745 -0.036174,0.29179 -0.016881,0.15434 -0.026527,0.30627 -0.00965,0.14952 -0.00965,0.25804 0,0.13505 -0.03135,0.26769 -0.014469,0.0579 -0.03135,0.0989 -0.014469,0.0386 -0.040997,0.0651 -0.026527,0.0241 -0.067524,0.0362 -0.038585,0.01 -0.098874,0.01 -0.069935,0 -0.1085205,-0.0145 -0.038585,-0.0145 -0.057878,-0.0386 -0.019292,-0.0265 -0.024116,-0.0579 -0.00241,-0.0338 -0.00482,-0.0699 0,-0.0386 -0.00482,-0.0772 -0.00241,-0.041 -0.019292,-0.0772 -0.028939,0.0193 -0.079582,0.0507 -0.050643,0.0314 -0.1036973,0.0651 -0.050643,0.0314 -0.096463,0.0603 -0.04582,0.0265 -0.067524,0.0386 -0.055466,0.0314 -0.1254015,0.0675 -0.069935,0.0338 -0.1519287,0.0651 -0.079582,0.0289 -0.1688097,0.0482 -0.086816,0.0193 -0.1760443,0.0193 -0.1085206,0 -0.2122179,-0.0362 -0.1012858,-0.0362 -0.1832791,-0.11093 -0.079582,-0.0748 -0.1278131,-0.1881 -0.048231,-0.11576 -0.048231,-0.2701 0,-0.0555 0.00482,-0.10852 0.00723,-0.0555 0.024116,-0.12299 z m 0.4172011,-0.0193 q -0.019293,0.0723 -0.019293,0.13987 0,0.0699 0.012058,0.13263 0.012058,0.0603 0.043408,0.10611 0.033762,0.0458 0.086816,0.0748 0.055466,0.0265 0.1422824,0.0265 0.048231,0 0.1036974,-0.0169 0.055466,-0.0169 0.1085205,-0.041 0.055466,-0.0265 0.1012858,-0.0531 0.048231,-0.0289 0.081993,-0.0506 0.09164,-0.0603 0.1688097,-0.11816 0.079582,-0.0579 0.1422824,-0.1254 0.062701,-0.0675 0.1085206,-0.14952 0.048231,-0.0844 0.07717,-0.19293 0.024116,-0.0965 0.040997,-0.17604 0.019293,-0.0796 0.033762,-0.15434 0.014469,-0.0772 0.026527,-0.15675 0.012058,-0.0796 0.024116,-0.17605 -0.012058,-0.0145 -0.033762,-0.0265 -0.019292,-0.0145 -0.060289,-0.0145 -0.096463,0 -0.2122179,0.0338 -0.1157552,0.0313 -0.2387451,0.0916 -0.1205784,0.0603 -0.2387452,0.1471 -0.1157552,0.0868 -0.217041,0.19534 -0.098874,0.10611 -0.1736328,0.23392 -0.074759,0.12781 -0.1085205,0.2701 z"
         style="font-style:normal;font-variant:normal;font-weight:normal;font-stretch:normal;font-size:4.93888903px;font-family:'MV Boli';-inkscape-font-specification:'MV Boli, Normal';font-variant-ligatures:normal;font-variant-caps:normal;font-variant-numeric:normal;font-feature-settings:normal;text-align:center;writing-mode:lr-tb;text-anchor:middle;fill:#666666;stroke-width:0.26458332"
         id="path866" />
      <path
         d="m 9.0152041,219.64904 q 0,-0.1037 0.055466,-0.17604 0.055466,-0.0724 0.1471055,-0.0965 0.026527,-0.0531 0.081993,-0.14229 0.055466,-0.0916 0.1374593,-0.19775 0.081993,-0.1061 0.1856907,-0.21221 0.1061089,-0.10852 0.2315104,-0.19534 0.127813,-0.0892 0.2725066,-0.14469 0.147106,-0.0555 0.311093,-0.0555 0.13987,0 0.243568,0.0338 0.103697,0.0338 0.171221,0.0941 0.06752,0.0603 0.101286,0.1447 0.03376,0.082 0.03376,0.17845 0,0.082 -0.0217,0.15675 -0.03376,0.13505 -0.125402,0.23634 -0.09164,0.10128 -0.217041,0.17845 -0.12299,0.0748 -0.270095,0.12541 -0.144694,0.0506 -0.2918,0.0844 -0.1446939,0.0338 -0.2797416,0.053 -0.1350478,0.0169 -0.233922,0.0265 -0.021704,0.0434 -0.038585,0.11093 -0.014469,0.0651 -0.014469,0.12782 0,0.13987 0.1109321,0.21704 0.1109321,0.0772 0.306269,0.0772 0.113344,0 0.217041,-0.0241 0.103697,-0.0265 0.195337,-0.0651 0.09405,-0.041 0.176044,-0.0868 0.08199,-0.0482 0.149517,-0.0941 0.08682,-0.0579 0.163987,-0.0965 0.07958,-0.041 0.139871,-0.041 0.06029,0 0.07717,0.0314 0.01688,0.0289 0.01688,0.0627 0,0.0193 -0.0024,0.0386 0,0.0169 -0.0024,0.0289 -0.01206,0.0627 -0.04823,0.1254 -0.03617,0.0627 -0.09164,0.10852 -0.250803,0.19775 -0.516075,0.28215 -0.262861,0.0844 -0.5618954,0.0844 -0.057878,0 -0.1374593,-0.007 -0.07717,-0.007 -0.161575,-0.0289 -0.084405,-0.0217 -0.1663981,-0.0627 -0.081993,-0.041 -0.1471056,-0.10852 -0.062701,-0.0675 -0.1036974,-0.16639 -0.038585,-0.0989 -0.038585,-0.23875 0,-0.11334 0.03135,-0.25321 -0.03135,-0.005 -0.060289,-0.0314 -0.026527,-0.0289 -0.026527,-0.082 z m 1.5096409,-0.668 q 0.0048,-0.0121 0.0048,-0.0217 0,-0.01 0,-0.0217 0,-0.0651 -0.04823,-0.0965 -0.04823,-0.0338 -0.115755,-0.0338 -0.106109,0 -0.209807,0.0555 -0.101286,0.0555 -0.1929251,0.13987 -0.089228,0.082 -0.1591634,0.17846 -0.069935,0.0941 -0.1085205,0.17122 0.1736328,-0.0145 0.318327,-0.0458 0.144694,-0.0338 0.250803,-0.082 0.10852,-0.0507 0.173633,-0.11094 0.06752,-0.0627 0.08682,-0.13263 z m -0.279742,-0.65354 z"
         style="font-style:normal;font-variant:normal;font-weight:normal;font-stretch:normal;font-size:4.93888903px;font-family:'MV Boli';-inkscape-font-specification:'MV Boli, Normal';font-variant-ligatures:normal;font-variant-caps:normal;font-variant-numeric:normal;font-feature-settings:normal;text-align:center;writing-mode:lr-tb;text-anchor:middle;fill:#666666;stroke-width:0.26458332"
         id="path868" />
      <path
         d="m 12.263585,220.67637 q -0.01206,0.002 -0.02171,0.002 -0.0072,0.002 -0.01688,0.002 -0.05064,0 -0.08923,-0.0217 -0.03858,-0.0217 -0.06752,-0.0555 -0.02653,-0.0314 -0.041,-0.0675 -0.01447,-0.0386 -0.01447,-0.0724 -0.01206,-0.0506 -0.03376,-0.14469 -0.0217,-0.094 -0.05064,-0.21222 -0.02653,-0.11817 -0.05788,-0.25321 -0.02894,-0.13746 -0.05788,-0.27492 -0.02894,-0.13746 -0.05305,-0.26769 -0.02412,-0.13022 -0.041,-0.23874 -0.01206,-0.0772 -0.02653,-0.1447 -0.01447,-0.0675 -0.02653,-0.12781 -0.01206,-0.0627 -0.0217,-0.12058 -0.0072,-0.0603 -0.0072,-0.12058 0,-0.0675 0.01447,-0.12781 0.01447,-0.0627 0.041,-0.10852 0.02894,-0.0482 0.06752,-0.0772 0.041,-0.0289 0.08923,-0.0289 0.09646,0 0.151929,0.0482 0.05788,0.0458 0.08923,0.1254 0.03135,0.0772 0.04341,0.18087 0.01447,0.1037 0.0217,0.21463 0.0096,0.13987 0.03135,0.30386 0.0217,0.16157 0.04823,0.32556 0.02653,0.16158 0.05305,0.3135 0.02894,0.14952 0.05064,0.26528 0.07235,-0.0748 0.253215,-0.3328 0.08923,-0.1254 0.163986,-0.23151 0.07717,-0.10611 0.144694,-0.20257 0.06752,-0.0989 0.127813,-0.19534 0.06029,-0.0965 0.115755,-0.20016 0.05788,-0.1037 0.110933,-0.21945 0.05547,-0.11817 0.110932,-0.26045 0.01688,-0.0289 0.041,-0.0603 0.02412,-0.0338 0.05547,-0.0579 0.03376,-0.0265 0.07476,-0.0434 0.04341,-0.0169 0.09646,-0.0169 0.110932,0 0.149517,0.0555 0.041,0.0555 0.041,0.13987 0,0.11334 -0.041,0.22186 -0.03858,0.10611 -0.125402,0.2291 l -1.131025,1.59646 q -0.03376,0.0724 -0.06994,0.12058 -0.03617,0.0482 -0.07235,0.0772 -0.03376,0.0289 -0.06511,0.0434 -0.03135,0.0145 -0.05547,0.0193 z"
         style="font-style:normal;font-variant:normal;font-weight:normal;font-stretch:normal;font-size:4.93888903px;font-family:'MV Boli';-inkscape-font-specification:'MV Boli, Normal';font-variant-ligatures:normal;font-variant-caps:normal;font-variant-numeric:normal;font-feature-settings:normal;text-align:center;writing-mode:lr-tb;text-anchor:middle;fill:#666666;stroke-width:0.26458332"
         id="path870" />
      <path
         d="m 13.876923,219.64904 q 0,-0.1037 0.05547,-0.17604 0.05547,-0.0724 0.147105,-0.0965 0.02653,-0.0531 0.08199,-0.14229 0.05547,-0.0916 0.137459,-0.19775 0.08199,-0.1061 0.185691,-0.21221 0.106109,-0.10852 0.23151,-0.19534 0.127813,-0.0892 0.272507,-0.14469 0.147106,-0.0555 0.311092,-0.0555 0.139871,0 0.243569,0.0338 0.103697,0.0338 0.171221,0.0941 0.06752,0.0603 0.101286,0.1447 0.03376,0.082 0.03376,0.17845 0,0.082 -0.0217,0.15675 -0.03376,0.13505 -0.125401,0.23634 -0.09164,0.10128 -0.217041,0.17845 -0.12299,0.0748 -0.270096,0.12541 -0.144694,0.0506 -0.291799,0.0844 -0.144694,0.0338 -0.279742,0.053 -0.135048,0.0169 -0.233922,0.0265 -0.0217,0.0434 -0.03858,0.11093 -0.01447,0.0651 -0.01447,0.12782 0,0.13987 0.110932,0.21704 0.110932,0.0772 0.306269,0.0772 0.113343,0 0.217041,-0.0241 0.103697,-0.0265 0.195337,-0.0651 0.09405,-0.041 0.176044,-0.0868 0.08199,-0.0482 0.149517,-0.0941 0.08682,-0.0579 0.163987,-0.0965 0.07958,-0.041 0.139871,-0.041 0.06029,0 0.07717,0.0314 0.01688,0.0289 0.01688,0.0627 0,0.0193 -0.0024,0.0386 0,0.0169 -0.0024,0.0289 -0.01206,0.0627 -0.04823,0.1254 -0.03617,0.0627 -0.09164,0.10852 -0.250803,0.19775 -0.516076,0.28215 -0.26286,0.0844 -0.561895,0.0844 -0.05788,0 -0.137459,-0.007 -0.07717,-0.007 -0.161575,-0.0289 -0.08441,-0.0217 -0.166398,-0.0627 -0.08199,-0.041 -0.147106,-0.10852 -0.0627,-0.0675 -0.103697,-0.16639 -0.03858,-0.0989 -0.03858,-0.23875 0,-0.11334 0.03135,-0.25321 -0.03135,-0.005 -0.06029,-0.0314 -0.02653,-0.0289 -0.02653,-0.082 z m 1.509641,-0.668 q 0.0048,-0.0121 0.0048,-0.0217 0,-0.01 0,-0.0217 0,-0.0651 -0.04823,-0.0965 -0.04823,-0.0338 -0.115755,-0.0338 -0.106109,0 -0.209806,0.0555 -0.101286,0.0555 -0.192925,0.13987 -0.08923,0.082 -0.159164,0.17846 -0.06993,0.0941 -0.10852,0.17122 0.173632,-0.0145 0.318326,-0.0458 0.144694,-0.0338 0.250803,-0.082 0.108521,-0.0507 0.173633,-0.11094 0.06752,-0.0627 0.08682,-0.13263 z m -0.279742,-0.65354 z"
         style="font-style:normal;font-variant:normal;font-weight:normal;font-stretch:normal;font-size:4.93888903px;font-family:'MV Boli';-inkscape-font-specification:'MV Boli, Normal';font-variant-ligatures:normal;font-variant-caps:normal;font-variant-numeric:normal;font-feature-settings:normal;text-align:center;writing-mode:lr-tb;text-anchor:middle;fill:#666666;stroke-width:0.26458332"
         id="path872" />
      <path
         d="m 17.067426,217.4521 q 0.0072,-0.082 0.01929,-0.17845 0.01206,-0.0965 0.03859,-0.17846 0.02653,-0.082 0.06994,-0.13504 0.04582,-0.0555 0.115755,-0.0555 0.03858,0 0.08441,0.0145 0.04823,0.0145 0.08923,0.041 0.04341,0.0241 0.07235,0.0603 0.02894,0.0362 0.02894,0.0796 0,0.0193 -0.0072,0.0458 -0.0072,0.0241 -0.01206,0.0482 l -0.602891,2.41639 q -0.03617,0.14469 -0.06029,0.27733 -0.02412,0.13022 -0.03617,0.21463 v 0.0579 q 0,0.0724 -0.0096,0.15917 -0.0096,0.0844 -0.03617,0.15916 -0.02653,0.0724 -0.07476,0.12058 -0.04582,0.0506 -0.120579,0.0506 -0.06511,0 -0.113343,-0.0289 -0.04823,-0.0265 -0.07958,-0.0699 -0.03135,-0.0434 -0.04582,-0.0916 -0.01447,-0.0506 -0.01447,-0.094 0,-0.0386 0.0072,-0.0941 0.0072,-0.0579 0.01688,-0.11817 0.01206,-0.0627 0.02412,-0.12299 0.01206,-0.0627 0.02412,-0.10852 z"
         style="font-style:normal;font-variant:normal;font-weight:normal;font-stretch:normal;font-size:4.93888903px;font-family:'MV Boli';-inkscape-font-specification:'MV Boli, Normal';font-variant-ligatures:normal;font-variant-caps:normal;font-variant-numeric:normal;font-feature-settings:normal;text-align:center;writing-mode:lr-tb;text-anchor:middle;fill:#666666;stroke-width:0.26458332"
         id="path874" />
      <path
         d="m 17.619675,219.65628 q 0.03617,-0.14711 0.110932,-0.3111 0.07717,-0.16639 0.20016,-0.3352 0.12299,-0.16881 0.294211,-0.33039 0.173633,-0.16157 0.40032,-0.30144 0.03617,-0.0217 0.110932,-0.0458 0.07476,-0.0265 0.154341,-0.0314 0.09405,-0.10129 0.253214,-0.10129 0.188102,0 0.315915,0.0965 0.130225,0.094 0.21463,0.25804 0.02653,0.0531 0.04823,0.1037 0.02412,0.0506 0.03859,0.10852 0.01688,0.0555 0.02653,0.12058 0.0096,0.0651 0.0096,0.1471 0,0.19052 -0.06029,0.38826 -0.06029,0.19775 -0.171222,0.38586 -0.110932,0.1881 -0.270095,0.36173 -0.156752,0.17122 -0.349677,0.30868 -0.130225,0.094 -0.289388,0.1447 -0.156752,0.053 -0.352089,0.053 -0.185691,0 -0.32315,-0.0506 -0.135048,-0.0482 -0.226687,-0.13987 -0.08923,-0.0916 -0.135048,-0.21946 -0.04341,-0.12781 -0.04341,-0.28456 0,-0.15193 0.04341,-0.32556 z m 0.40032,0.0314 q -0.01447,0.0555 -0.0217,0.10611 -0.0048,0.0482 -0.0048,0.094 0,0.0796 0.01929,0.14951 0.0217,0.0675 0.06752,0.11817 0.04582,0.0482 0.113344,0.0772 0.06994,0.0265 0.16881,0.0265 0.183279,0 0.34003,-0.0916 0.159164,-0.0941 0.282154,-0.23392 0.12299,-0.13987 0.204983,-0.29904 0.08441,-0.16157 0.118167,-0.29662 0.0217,-0.0844 0.03617,-0.15916 0.01688,-0.0748 0.01688,-0.13746 0,-0.0627 -0.02411,-0.11576 -0.02171,-0.0555 -0.05788,-0.12299 -0.0217,-0.041 -0.04341,-0.0844 -0.0217,-0.0458 -0.03858,-0.0892 -0.01929,0.0338 -0.041,0.0603 -0.0217,0.0241 -0.06511,0.0458 -0.04341,0.0193 -0.118167,0.0362 -0.07476,0.0169 -0.195337,0.0289 -0.07958,0.0265 -0.161575,0.082 -0.08199,0.0555 -0.161575,0.13023 -0.07717,0.0748 -0.149517,0.16157 -0.06994,0.0868 -0.127813,0.17846 -0.05547,0.0892 -0.09887,0.17604 -0.041,0.0868 -0.05788,0.15917 z"
         style="font-style:normal;font-variant:normal;font-weight:normal;font-stretch:normal;font-size:4.93888903px;font-family:'MV Boli';-inkscape-font-specification:'MV Boli, Normal';font-variant-ligatures:normal;font-variant-caps:normal;font-variant-numeric:normal;font-feature-settings:normal;text-align:center;writing-mode:lr-tb;text-anchor:middle;fill:#666666;stroke-width:0.26458332"
         id="path876" />
      <path
         d="m 19.999892,221.47219 q 0.04823,-0.19534 0.0844,-0.35933 0.03859,-0.16157 0.06994,-0.30627 0.03135,-0.14228 0.05788,-0.27491 0.02894,-0.13505 0.05547,-0.2701 0.02894,-0.13746 0.05788,-0.28456 0.03135,-0.14711 0.06752,-0.32074 l 0.115755,-0.55949 q 0.02894,-0.14228 0.03859,-0.24356 0.01206,-0.1037 0.01206,-0.19052 0,-0.0916 0.0048,-0.16157 0.0048,-0.0724 0.02653,-0.12058 0.02171,-0.0506 0.0627,-0.0748 0.04341,-0.0265 0.118167,-0.0265 0.10852,0 0.16881,0.0314 0.06029,0.0289 0.08923,0.0772 0.02894,0.0482 0.03376,0.11093 0.0072,0.0627 0.0072,0.13023 0.08199,-0.0579 0.190514,-0.1037 0.110932,-0.0458 0.229099,-0.0748 0.118167,-0.0314 0.238745,-0.0482 0.120578,-0.0169 0.226687,-0.0169 0.173633,0 0.303858,0.0627 0.130224,0.0603 0.217041,0.16399 0.08682,0.10128 0.130224,0.23633 0.04341,0.13264 0.04341,0.27492 0,0.1664 -0.05305,0.3135 -0.05305,0.14711 -0.144694,0.27492 -0.09164,0.12782 -0.214629,0.23875 -0.120579,0.10852 -0.262861,0.20016 -0.139871,0.0916 -0.2918,0.16881 -0.149517,0.0748 -0.296623,0.13505 -0.09887,0.041 -0.188102,0.0627 -0.08682,0.0193 -0.156752,0.0193 -0.09887,0 -0.192925,-0.0217 -0.09164,-0.0217 -0.178456,-0.0723 -0.04823,0.16398 -0.08199,0.3135 -0.03135,0.14952 -0.05064,0.26527 -0.01206,0.0724 -0.02894,0.15193 -0.01688,0.0796 -0.03376,0.15434 -0.01688,0.0772 -0.03376,0.1447 -0.01447,0.0675 -0.02411,0.11575 -0.0072,0.0289 -0.03617,0.0482 -0.02653,0.0193 -0.06511,0.0314 -0.03859,0.0145 -0.07958,0.0193 -0.03859,0.007 -0.06994,0.007 -0.178456,0 -0.178456,-0.13987 0,-0.0386 0.01206,-0.082 z m 0.747585,-1.39871 q 0.03617,0.005 0.07717,0.0121 0.041,0.007 0.07958,0.0145 0.03858,0.007 0.06511,0.0145 0.02894,0.005 0.03859,0.005 0.04582,0 0.101286,-0.0121 0.05788,-0.0121 0.113344,-0.0314 0.05788,-0.0193 0.110932,-0.041 0.05305,-0.0241 0.09405,-0.0458 0.118167,-0.0603 0.250803,-0.14469 0.135048,-0.0868 0.248391,-0.19775 0.115756,-0.11093 0.190514,-0.24839 0.07476,-0.13746 0.07476,-0.30386 0,-0.0675 -0.01688,-0.1254 -0.01688,-0.0579 -0.05064,-0.10129 -0.03376,-0.0434 -0.08923,-0.0675 -0.05305,-0.0265 -0.127813,-0.0265 -0.08199,0 -0.15434,0.0121 -0.07235,0.01 -0.142283,0.0338 -0.06993,0.0241 -0.139871,0.0627 -0.06993,0.0362 -0.144694,0.0892 -0.06752,0.0555 -0.151928,0.0989 -0.08441,0.041 -0.183279,0.0531 z"
         style="font-style:normal;font-variant:normal;font-weight:normal;font-stretch:normal;font-size:4.93888903px;font-family:'MV Boli';-inkscape-font-specification:'MV Boli, Normal';font-variant-ligatures:normal;font-variant-caps:normal;font-variant-numeric:normal;font-feature-settings:normal;text-align:center;writing-mode:lr-tb;text-anchor:middle;fill:#666666;stroke-width:0.26458332"
         id="path878" />
      <path
         d="m 22.999881,220.42074 q 0.07235,-0.28215 0.139871,-0.52572 0.06752,-0.24357 0.130224,-0.46543 0.06511,-0.22428 0.125402,-0.43408 0.06029,-0.20981 0.115755,-0.42685 0.0217,-0.0844 0.02411,-0.16157 0.0048,-0.0796 0.02412,-0.16399 0.0096,-0.0289 0.03376,-0.0506 0.02653,-0.0241 0.05788,-0.041 0.03135,-0.0169 0.06511,-0.0265 0.03617,-0.01 0.06752,-0.01 0.06752,0 0.110932,0.0169 0.04582,0.0145 0.07235,0.041 0.02894,0.0265 0.03858,0.0651 0.01206,0.0362 0.01206,0.082 0,0.082 -0.02653,0.1664 -0.02653,0.082 -0.06511,0.18086 0.113344,-0.0892 0.231511,-0.16881 0.120578,-0.0796 0.24598,-0.13987 0.127813,-0.0603 0.260449,-0.0965 0.132636,-0.0362 0.274918,-0.0362 0.06511,0 0.130225,0.0217 0.06511,0.0193 0.115755,0.0627 0.05306,0.0434 0.08682,0.11335 0.03617,0.0699 0.041,0.17122 0.103698,-0.0699 0.21463,-0.13987 0.110932,-0.0724 0.224275,-0.12782 0.115756,-0.0579 0.229099,-0.0916 0.115756,-0.0362 0.224276,-0.0362 0.161575,0 0.265272,0.0434 0.106109,0.041 0.166399,0.11334 0.0627,0.0699 0.08682,0.16399 0.02653,0.094 0.02653,0.20016 0,0.11575 -0.0217,0.23874 -0.0217,0.12299 -0.04823,0.23393 -0.06994,0.27974 -0.156752,0.53054 -0.08682,0.24839 -0.188102,0.50402 -0.02412,0.0603 -0.05064,0.12781 -0.02653,0.0675 -0.0627,0.1254 -0.03376,0.0555 -0.08199,0.0941 -0.04582,0.0362 -0.108521,0.0362 -0.142282,0 -0.195337,-0.0482 -0.05305,-0.0482 -0.05305,-0.13746 0,-0.0241 0.0024,-0.0555 0.0024,-0.0314 0.01206,-0.0603 0.0096,-0.0362 0.04341,-0.1037 0.03376,-0.0699 0.07235,-0.14951 0.041,-0.0796 0.07958,-0.15917 0.03859,-0.082 0.05788,-0.14228 0.03135,-0.1037 0.07235,-0.23874 0.04341,-0.13746 0.08199,-0.27492 0.03859,-0.13987 0.0627,-0.26286 0.02653,-0.1254 0.02653,-0.20257 0,-0.0362 -0.0072,-0.0724 -0.0072,-0.0362 -0.02653,-0.0627 -0.01688,-0.0265 -0.05064,-0.0434 -0.03135,-0.0169 -0.08199,-0.0169 -0.07235,0 -0.173633,0.041 -0.09887,0.041 -0.207395,0.10853 -0.106109,0.0651 -0.207394,0.14951 -0.101286,0.082 -0.173633,0.16399 -0.05064,0.0579 -0.09646,0.094 -0.04582,0.0362 -0.09164,0.0555 -0.0048,0.01 -0.02412,0.0651 -0.01929,0.053 -0.04582,0.13022 -0.02653,0.0748 -0.05547,0.16399 -0.02894,0.0868 -0.05547,0.16399 -0.02412,0.0748 -0.041,0.12781 -0.01688,0.0506 -0.01688,0.0555 -0.01688,0.0675 -0.02894,0.13987 -0.01206,0.0699 -0.0217,0.13504 -0.0096,0.0651 -0.01929,0.13987 -0.0072,0.0724 -0.03376,0.13746 -0.02412,0.0627 -0.07717,0.1037 -0.05064,0.041 -0.144694,0.041 -0.04823,0 -0.08923,-0.0241 -0.03858,-0.0241 -0.06752,-0.0603 -0.02894,-0.0386 -0.04582,-0.0844 -0.01688,-0.0482 -0.01929,-0.0965 0.05547,-0.21705 0.10852,-0.39068 0.05306,-0.17363 0.106109,-0.33279 0.05306,-0.15917 0.101286,-0.31833 0.05064,-0.16158 0.09887,-0.3545 0.01206,-0.0458 0.01929,-0.0892 0.0072,-0.0458 0.0072,-0.0796 0,-0.0579 -0.02412,-0.0941 -0.02412,-0.0386 -0.08441,-0.0386 -0.09887,0 -0.197749,0.041 -0.09646,0.0386 -0.209806,0.12299 -0.113343,0.0844 -0.253214,0.21463 -0.13746,0.13022 -0.318327,0.31109 -0.01929,0.0362 -0.05064,0.13505 -0.03135,0.0989 -0.06511,0.2098 -0.03135,0.11094 -0.05788,0.2074 -0.02653,0.094 -0.03376,0.1254 -0.02653,0.10129 -0.03617,0.17122 -0.0096,0.0675 -0.01688,0.12299 -0.0048,0.0289 -0.01447,0.0965 -0.0096,0.0651 -0.03617,0.13264 -0.02412,0.0675 -0.06994,0.11817 -0.04582,0.0531 -0.120578,0.0531 -0.110932,0 -0.183279,-0.0603 -0.06994,-0.0603 -0.06994,-0.15193 0,-0.0169 0.0024,-0.0314 0.0024,-0.0145 0.0072,-0.0314 z"
         style="font-style:normal;font-variant:normal;font-weight:normal;font-stretch:normal;font-size:4.93888903px;font-family:'MV Boli';-inkscape-font-specification:'MV Boli, Normal';font-variant-ligatures:normal;font-variant-caps:normal;font-variant-numeric:normal;font-feature-settings:normal;text-align:center;writing-mode:lr-tb;text-anchor:middle;fill:#666666;stroke-width:0.26458332"
         id="path880" />
      <path
         d="m 27.208065,219.64904 q 0,-0.1037 0.05547,-0.17604 0.05547,-0.0724 0.147106,-0.0965 0.02653,-0.0531 0.08199,-0.14229 0.05547,-0.0916 0.137459,-0.19775 0.08199,-0.1061 0.185691,-0.21221 0.106109,-0.10852 0.23151,-0.19534 0.127814,-0.0892 0.272508,-0.14469 0.147105,-0.0555 0.311092,-0.0555 0.139871,0 0.243568,0.0338 0.103697,0.0338 0.171221,0.0941 0.06752,0.0603 0.101286,0.1447 0.03376,0.082 0.03376,0.17845 0,0.082 -0.0217,0.15675 -0.03376,0.13505 -0.125402,0.23634 -0.09164,0.10128 -0.217041,0.17845 -0.12299,0.0748 -0.270095,0.12541 -0.144694,0.0506 -0.2918,0.0844 -0.144694,0.0338 -0.279742,0.053 -0.135047,0.0169 -0.233922,0.0265 -0.0217,0.0434 -0.03859,0.11093 -0.01447,0.0651 -0.01447,0.12782 0,0.13987 0.110932,0.21704 0.110932,0.0772 0.306269,0.0772 0.113344,0 0.217041,-0.0241 0.103697,-0.0265 0.195337,-0.0651 0.09405,-0.041 0.176044,-0.0868 0.08199,-0.0482 0.149518,-0.0941 0.08682,-0.0579 0.163986,-0.0965 0.07958,-0.041 0.139871,-0.041 0.06029,0 0.07717,0.0314 0.01688,0.0289 0.01688,0.0627 0,0.0193 -0.0024,0.0386 0,0.0169 -0.0024,0.0289 -0.01206,0.0627 -0.04823,0.1254 -0.03617,0.0627 -0.09164,0.10852 -0.250803,0.19775 -0.516075,0.28215 -0.262861,0.0844 -0.561895,0.0844 -0.05788,0 -0.13746,-0.007 -0.07717,-0.007 -0.161575,-0.0289 -0.0844,-0.0217 -0.166398,-0.0627 -0.08199,-0.041 -0.147105,-0.10852 -0.0627,-0.0675 -0.103698,-0.16639 -0.03859,-0.0989 -0.03859,-0.23875 0,-0.11334 0.03135,-0.25321 -0.03135,-0.005 -0.06029,-0.0314 -0.02653,-0.0289 -0.02653,-0.082 z m 1.509641,-0.668 q 0.0048,-0.0121 0.0048,-0.0217 0,-0.01 0,-0.0217 0,-0.0651 -0.04823,-0.0965 -0.04823,-0.0338 -0.115755,-0.0338 -0.106109,0 -0.209807,0.0555 -0.101285,0.0555 -0.192925,0.13987 -0.08923,0.082 -0.159163,0.17846 -0.06994,0.0941 -0.108521,0.17122 0.173633,-0.0145 0.318327,-0.0458 0.144694,-0.0338 0.250803,-0.082 0.10852,-0.0507 0.173633,-0.11094 0.06752,-0.0627 0.08682,-0.13263 z m -0.279742,-0.65354 z"
         style="font-style:normal;font-variant:normal;font-weight:normal;font-stretch:normal;font-size:4.93888903px;font-family:'MV Boli';-inkscape-font-specification:'MV Boli, Normal';font-variant-ligatures:normal;font-variant-caps:normal;font-variant-numeric:normal;font-feature-settings:normal;text-align:center;writing-mode:lr-tb;text-anchor:middle;fill:#666666;stroke-width:0.26458332"
         id="path882" />
      <path
         d="m 31.394546,218.60001 q -0.0844,0 -0.180868,0.041 -0.09646,0.0386 -0.20016,0.10611 -0.103697,0.0675 -0.212218,0.15434 -0.106109,0.0844 -0.209806,0.17604 -0.05306,0.0458 -0.101286,0.0844 -0.04823,0.0362 -0.09646,0.0555 -0.03376,0.0555 -0.07235,0.14711 -0.03617,0.0892 -0.07235,0.19775 -0.03617,0.1061 -0.06994,0.21945 -0.03135,0.11093 -0.05306,0.20739 -0.01206,0.0506 -0.01929,0.0989 -0.0072,0.0482 -0.01688,0.10369 -0.0096,0.0531 -0.02412,0.11576 -0.01206,0.0627 -0.03135,0.13987 -0.01206,0.0458 -0.03858,0.0748 -0.02653,0.0265 -0.05547,0.041 -0.02894,0.0145 -0.05547,0.0169 -0.02653,0.005 -0.041,0.005 -0.09164,0 -0.149517,-0.0434 -0.05788,-0.0434 -0.05788,-0.16881 0,-0.0338 0.0024,-0.0699 0.0024,-0.0386 0.01447,-0.0844 0.05306,-0.2291 0.101286,-0.41238 0.05064,-0.18328 0.101286,-0.34003 0.05064,-0.15675 0.101286,-0.29421 0.05305,-0.13987 0.106109,-0.27974 0.05547,-0.14228 0.113343,-0.2918 0.06029,-0.15193 0.127813,-0.33521 0.01447,-0.041 0.07476,-0.0675 0.0627,-0.0289 0.132636,-0.0289 0.09164,0 0.149517,0.041 0.06029,0.041 0.06029,0.11816 0,0.007 -0.0048,0.0265 -0.0048,0.0193 -0.01447,0.041 l -0.106109,0.2508 q 0.101286,-0.0796 0.209806,-0.15916 0.110932,-0.0796 0.226688,-0.14229 0.115755,-0.0651 0.23151,-0.10369 0.118167,-0.041 0.23151,-0.041 0.231511,0 0.361735,0.1254 0.130225,0.12299 0.130225,0.38344 0,0.14952 -0.05305,0.34003 -0.05064,0.19052 -0.130225,0.40997 -0.07717,0.21704 -0.16881,0.4582 -0.08923,0.23874 -0.166398,0.48713 -0.0217,0.0675 -0.04582,0.11335 -0.0217,0.0458 -0.05305,0.0723 -0.03135,0.0289 -0.07476,0.041 -0.041,0.0121 -0.101285,0.0121 -0.09405,0 -0.130225,-0.0362 -0.03617,-0.0338 -0.03617,-0.11093 0,-0.0675 0.01929,-0.16398 0.0217,-0.0989 0.05788,-0.21463 0.03859,-0.11817 0.08682,-0.25081 0.05064,-0.13263 0.108521,-0.27009 0.04582,-0.11093 0.08923,-0.22187 0.04582,-0.11093 0.07958,-0.21463 0.03617,-0.10369 0.05788,-0.19774 0.0217,-0.0941 0.0217,-0.17364 0,-0.0748 -0.03376,-0.13022 -0.03135,-0.0579 -0.120578,-0.0579 z"
         style="font-style:normal;font-variant:normal;font-weight:normal;font-stretch:normal;font-size:4.93888903px;font-family:'MV Boli';-inkscape-font-specification:'MV Boli, Normal';font-variant-ligatures:normal;font-variant-caps:normal;font-variant-numeric:normal;font-feature-settings:normal;text-align:center;writing-mode:lr-tb;text-anchor:middle;fill:#666666;stroke-width:0.26458332"
         id="path884" />
      <path
         d="m 32.75708,219.82991 q 0,-0.20257 0.04582,-0.41961 0.04582,-0.21946 0.09646,-0.41962 -0.0627,-0.002 -0.127813,-0.0193 -0.06511,-0.0169 -0.118166,-0.0458 -0.05306,-0.0289 -0.08682,-0.0699 -0.03376,-0.0434 -0.03376,-0.0989 0,-0.0217 0.0096,-0.0555 0.0096,-0.0338 0.02653,-0.0651 0.01929,-0.0338 0.04823,-0.0555 0.02894,-0.0241 0.06511,-0.0241 h 0.32315 q 0.04582,0 0.0627,-0.0386 0.01688,-0.041 0.02653,-0.0796 0.03135,-0.13988 0.05788,-0.24116 0.02894,-0.1037 0.04823,-0.17363 0.01929,-0.0724 0.02894,-0.11576 0.01206,-0.0458 0.01206,-0.0724 0,-0.0314 -0.0024,-0.0603 -0.0024,-0.0289 -0.0024,-0.0796 v -0.0241 q 0,-0.0193 0.0024,-0.0506 0.0048,-0.0314 0.02412,-0.0892 0.01447,-0.0458 0.05305,-0.0868 0.03859,-0.041 0.113344,-0.041 0.06511,0 0.110932,0.0265 0.04582,0.0265 0.07476,0.0699 0.02894,0.0434 0.04341,0.0989 0.01447,0.0555 0.01447,0.11093 0,0.0603 -0.01206,0.10852 l -0.176045,0.67524 q 0.130225,-0.0217 0.231511,-0.041 0.101285,-0.0193 0.202571,-0.0386 0.110932,-0.0217 0.190514,-0.041 0.08199,-0.0193 0.139871,-0.0314 0.05788,-0.0145 0.09646,-0.0217 0.041,-0.01 0.06752,-0.01 0.03858,0 0.07717,0.007 0.041,0.005 0.06994,0.0193 0.03135,0.0145 0.05064,0.041 0.01929,0.0265 0.01929,0.0699 0,0.0579 -0.02412,0.1037 -0.0217,0.0434 -0.05788,0.0772 -0.03617,0.0314 -0.08199,0.053 -0.04582,0.0193 -0.09164,0.0289 -0.03859,0.007 -0.101286,0.0217 -0.06029,0.0145 -0.135047,0.0314 -0.07235,0.0169 -0.151929,0.0362 -0.07958,0.0193 -0.15434,0.0386 -0.110932,0.0289 -0.190514,0.0482 -0.07717,0.0193 -0.132636,0.0289 -0.05547,0.01 -0.09164,0.0145 -0.03376,0.005 -0.05547,0.005 -0.04582,0.13746 -0.07958,0.27009 -0.03376,0.13264 -0.05788,0.2484 -0.0217,0.11334 -0.03376,0.20498 -0.0096,0.0892 -0.0096,0.13987 0,0.0651 0.01206,0.1254 0.01206,0.0579 0.041,0.10129 0.02894,0.0434 0.07717,0.0699 0.05064,0.0241 0.125402,0.0241 0.127813,0 0.250803,-0.0699 0.12299,-0.0699 0.233922,-0.17604 0.113343,-0.10852 0.212218,-0.23634 0.101285,-0.12781 0.18569,-0.24356 0.02894,-0.0434 0.07476,-0.0434 0.01447,0 0.03376,0.005 0.0217,0.005 0.041,0.0169 0.01929,0.0121 0.03135,0.0314 0.01447,0.0193 0.01447,0.0458 0,0.0193 -0.0024,0.0289 -0.03858,0.14952 -0.120579,0.30145 -0.07958,0.14951 -0.163986,0.30144 -0.02894,0.0531 -0.07717,0.1037 -0.04582,0.0506 -0.101286,0.0989 -0.05547,0.0458 -0.115755,0.0892 -0.06029,0.041 -0.113344,0.0748 -0.09164,0.0579 -0.20016,0.0796 -0.108521,0.0217 -0.209806,0.0217 -0.156752,0 -0.279742,-0.0555 -0.120579,-0.0579 -0.204983,-0.15434 -0.08199,-0.0989 -0.125402,-0.2291 -0.04341,-0.13022 -0.04341,-0.27974 z"
         style="font-style:normal;font-variant:normal;font-weight:normal;font-stretch:normal;font-size:4.93888903px;font-family:'MV Boli';-inkscape-font-specification:'MV Boli, Normal';font-variant-ligatures:normal;font-variant-caps:normal;font-variant-numeric:normal;font-feature-settings:normal;text-align:center;writing-mode:lr-tb;text-anchor:middle;fill:#666666;stroke-width:0.26458332"
         id="path886" />
    </g>
    <path
       style="opacity:0.98999999;fill:none;fill-opacity:1;fill-rule:nonzero;stroke:#ececec;stroke-width:0.35599998;stroke-miterlimit:4;stroke-dasharray:none;stroke-opacity:0.9677419"
       inkscape:transform-center-x="0.60163974"
       inkscape:transform-center-y="0.020090539"
       d="m 25.59895,253.04481 -1.970565,3.84102 2.046995,3.80083 -4.261962,-0.68718 -2.982253,3.12133 -0.663474,-4.26571 -3.890129,-1.87175 3.851914,-1.94918 0.578021,-4.27813 3.044087,3.06105 z"
       id="path1470" />
    <path
       style="opacity:0.98999999;fill:none;fill-opacity:1;fill-rule:nonzero;stroke:#ececec;stroke-width:0.35599998;stroke-miterlimit:4;stroke-dasharray:none;stroke-opacity:0.9677419"
       inkscape:transform-center-x="0.48886955"
       inkscape:transform-center-y="0.0068862394"
       d="m 19.636073,247.26139 -3.398152,-0.56781 -2.394216,2.47741 -0.510064,-3.4073 -3.096014,-1.51147 3.082915,-1.53801 0.480774,-3.41156 2.41541,2.45676 3.393149,-0.59699 -1.590109,3.05637 z"
       id="path1472" />
    <path
       transform="rotate(28.145587,25.880925,237.12654)"
       style="opacity:0.98999999;fill:none;fill-opacity:1;fill-rule:nonzero;stroke:#ececec;stroke-width:0.35599998;stroke-miterlimit:4;stroke-dasharray:none;stroke-opacity:0.9677419"
       inkscape:transform-center-x="0.12090368"
       inkscape:transform-center-y="-0.15584495"
       d="m 17.904089,240.91809 -0.841427,-1.70491 -1.881487,-0.2734 1.361457,-1.32709 -0.321396,-1.87388 1.682853,0.88472 1.682853,-0.88472 -0.321396,1.87388 1.361456,1.32709 -1.881487,0.2734 z"
       id="path1474" />
  </g>
</svg>
